<mxfile host="Electron" agent="Mozilla/5.0 (X11; Linux x86_64) AppleWebKit/537.36 (KHTML, like Gecko) draw.io/28.2.5 Chrome/138.0.7204.251 Electron/37.6.1 Safari/537.36" version="28.2.5" pages="2">
  <diagram name="Arch" id="UJKZjxVwBtWNaq-Kvzxa">
    <mxGraphModel dx="1056" dy="627" grid="1" gridSize="10" guides="1" tooltips="1" connect="1" arrows="1" fold="1" page="1" pageScale="1" pageWidth="850" pageHeight="1100" math="0" shadow="0">
      <root>
        <mxCell id="0" />
        <mxCell id="1" parent="0" />
        <mxCell id="83gASJj2gVP3VqZlSx---31" style="edgeStyle=orthogonalEdgeStyle;rounded=0;orthogonalLoop=1;jettySize=auto;html=1;" parent="1" source="83gASJj2gVP3VqZlSx---2" target="83gASJj2gVP3VqZlSx---30" edge="1">
          <mxGeometry relative="1" as="geometry" />
        </mxCell>
        <mxCell id="83gASJj2gVP3VqZlSx---2" value="Projects" style="rounded=1;whiteSpace=wrap;html=1;" parent="1" vertex="1">
          <mxGeometry x="120" y="200" width="160" height="40" as="geometry" />
        </mxCell>
        <mxCell id="83gASJj2gVP3VqZlSx---14" style="edgeStyle=orthogonalEdgeStyle;rounded=0;orthogonalLoop=1;jettySize=auto;html=1;" parent="1" source="83gASJj2gVP3VqZlSx---3" target="83gASJj2gVP3VqZlSx---5" edge="1">
          <mxGeometry relative="1" as="geometry" />
        </mxCell>
        <mxCell id="83gASJj2gVP3VqZlSx---3" value="Issues" style="rounded=1;whiteSpace=wrap;html=1;" parent="1" vertex="1">
          <mxGeometry x="120" y="280" width="160" height="40" as="geometry" />
        </mxCell>
        <mxCell id="83gASJj2gVP3VqZlSx---16" style="edgeStyle=orthogonalEdgeStyle;rounded=0;orthogonalLoop=1;jettySize=auto;html=1;" parent="1" source="83gASJj2gVP3VqZlSx---4" target="83gASJj2gVP3VqZlSx---2" edge="1">
          <mxGeometry relative="1" as="geometry">
            <Array as="points">
              <mxPoint x="80" y="140" />
              <mxPoint x="80" y="220" />
            </Array>
          </mxGeometry>
        </mxCell>
        <mxCell id="83gASJj2gVP3VqZlSx---17" style="edgeStyle=orthogonalEdgeStyle;rounded=0;orthogonalLoop=1;jettySize=auto;html=1;" parent="1" source="83gASJj2gVP3VqZlSx---4" target="83gASJj2gVP3VqZlSx---3" edge="1">
          <mxGeometry relative="1" as="geometry">
            <Array as="points">
              <mxPoint x="80" y="140" />
              <mxPoint x="80" y="300" />
            </Array>
          </mxGeometry>
        </mxCell>
        <mxCell id="83gASJj2gVP3VqZlSx---4" value="Filters" style="rounded=1;whiteSpace=wrap;html=1;" parent="1" vertex="1">
          <mxGeometry x="120" y="120" width="160" height="40" as="geometry" />
        </mxCell>
        <mxCell id="83gASJj2gVP3VqZlSx---18" style="edgeStyle=orthogonalEdgeStyle;rounded=0;orthogonalLoop=1;jettySize=auto;html=1;" parent="1" source="83gASJj2gVP3VqZlSx---5" target="83gASJj2gVP3VqZlSx---8" edge="1">
          <mxGeometry relative="1" as="geometry" />
        </mxCell>
        <mxCell id="83gASJj2gVP3VqZlSx---32" style="edgeStyle=orthogonalEdgeStyle;rounded=0;orthogonalLoop=1;jettySize=auto;html=1;" parent="1" source="83gASJj2gVP3VqZlSx---5" target="83gASJj2gVP3VqZlSx---30" edge="1">
          <mxGeometry relative="1" as="geometry" />
        </mxCell>
        <mxCell id="83gASJj2gVP3VqZlSx---45" style="edgeStyle=orthogonalEdgeStyle;rounded=0;orthogonalLoop=1;jettySize=auto;html=1;" parent="1" source="83gASJj2gVP3VqZlSx---5" target="83gASJj2gVP3VqZlSx---19" edge="1">
          <mxGeometry relative="1" as="geometry">
            <Array as="points">
              <mxPoint x="400" y="380" />
            </Array>
          </mxGeometry>
        </mxCell>
        <mxCell id="83gASJj2gVP3VqZlSx---46" style="edgeStyle=orthogonalEdgeStyle;rounded=0;orthogonalLoop=1;jettySize=auto;html=1;" parent="1" source="83gASJj2gVP3VqZlSx---5" target="83gASJj2gVP3VqZlSx---9" edge="1">
          <mxGeometry relative="1" as="geometry">
            <Array as="points">
              <mxPoint x="400" y="460" />
            </Array>
          </mxGeometry>
        </mxCell>
        <mxCell id="83gASJj2gVP3VqZlSx---47" style="edgeStyle=orthogonalEdgeStyle;rounded=0;orthogonalLoop=1;jettySize=auto;html=1;" parent="1" source="83gASJj2gVP3VqZlSx---5" target="83gASJj2gVP3VqZlSx---6" edge="1">
          <mxGeometry relative="1" as="geometry">
            <Array as="points">
              <mxPoint x="400" y="540" />
            </Array>
          </mxGeometry>
        </mxCell>
        <mxCell id="83gASJj2gVP3VqZlSx---48" style="edgeStyle=orthogonalEdgeStyle;rounded=0;orthogonalLoop=1;jettySize=auto;html=1;" parent="1" source="83gASJj2gVP3VqZlSx---5" target="83gASJj2gVP3VqZlSx---12" edge="1">
          <mxGeometry relative="1" as="geometry">
            <Array as="points">
              <mxPoint x="400" y="620" />
            </Array>
          </mxGeometry>
        </mxCell>
        <mxCell id="83gASJj2gVP3VqZlSx---5" value="Public :: Solutions" style="rounded=1;whiteSpace=wrap;html=1;" parent="1" vertex="1">
          <mxGeometry x="320" y="280" width="160" height="40" as="geometry" />
        </mxCell>
        <mxCell id="Cv8rNGdWyZ6D_KvxZlJG-2" style="edgeStyle=orthogonalEdgeStyle;rounded=0;orthogonalLoop=1;jettySize=auto;html=1;" parent="1" source="83gASJj2gVP3VqZlSx---6" target="Cv8rNGdWyZ6D_KvxZlJG-1" edge="1">
          <mxGeometry relative="1" as="geometry" />
        </mxCell>
        <mxCell id="83gASJj2gVP3VqZlSx---6" value="Comments" style="rounded=1;whiteSpace=wrap;html=1;" parent="1" vertex="1">
          <mxGeometry x="200" y="520" width="160" height="40" as="geometry" />
        </mxCell>
        <mxCell id="83gASJj2gVP3VqZlSx---8" value="Reviews" style="rounded=1;whiteSpace=wrap;html=1;" parent="1" vertex="1">
          <mxGeometry x="520" y="280" width="160" height="40" as="geometry" />
        </mxCell>
        <mxCell id="83gASJj2gVP3VqZlSx---9" value="Authors" style="rounded=1;whiteSpace=wrap;html=1;" parent="1" vertex="1">
          <mxGeometry x="200" y="440" width="160" height="40" as="geometry" />
        </mxCell>
        <mxCell id="83gASJj2gVP3VqZlSx---15" style="edgeStyle=orthogonalEdgeStyle;rounded=0;orthogonalLoop=1;jettySize=auto;html=1;" parent="1" source="83gASJj2gVP3VqZlSx---11" target="83gASJj2gVP3VqZlSx---4" edge="1">
          <mxGeometry relative="1" as="geometry" />
        </mxCell>
        <mxCell id="Cv8rNGdWyZ6D_KvxZlJG-5" style="edgeStyle=orthogonalEdgeStyle;rounded=0;orthogonalLoop=1;jettySize=auto;html=1;" parent="1" source="83gASJj2gVP3VqZlSx---11" target="Cv8rNGdWyZ6D_KvxZlJG-4" edge="1">
          <mxGeometry relative="1" as="geometry" />
        </mxCell>
        <mxCell id="83gASJj2gVP3VqZlSx---11" value="Tags" style="rounded=1;whiteSpace=wrap;html=1;fillColor=#a20025;fontColor=#ffffff;strokeColor=#6F0000;" parent="1" vertex="1">
          <mxGeometry x="120" y="40" width="160" height="40" as="geometry" />
        </mxCell>
        <mxCell id="83gASJj2gVP3VqZlSx---12" value="Tests" style="rounded=1;whiteSpace=wrap;html=1;" parent="1" vertex="1">
          <mxGeometry x="200" y="600" width="160" height="40" as="geometry" />
        </mxCell>
        <mxCell id="83gASJj2gVP3VqZlSx---49" style="edgeStyle=orthogonalEdgeStyle;rounded=0;orthogonalLoop=1;jettySize=auto;html=1;" parent="1" source="83gASJj2gVP3VqZlSx---19" target="83gASJj2gVP3VqZlSx---28" edge="1">
          <mxGeometry relative="1" as="geometry" />
        </mxCell>
        <mxCell id="83gASJj2gVP3VqZlSx---19" value="Versions" style="rounded=1;whiteSpace=wrap;html=1;" parent="1" vertex="1">
          <mxGeometry x="200" y="360" width="160" height="40" as="geometry" />
        </mxCell>
        <mxCell id="83gASJj2gVP3VqZlSx---28" value="Diff" style="rounded=1;whiteSpace=wrap;html=1;" parent="1" vertex="1">
          <mxGeometry y="360" width="160" height="40" as="geometry" />
        </mxCell>
        <mxCell id="83gASJj2gVP3VqZlSx---30" value="Arch" style="rounded=1;whiteSpace=wrap;html=1;fillColor=#f0a30a;fontColor=#000000;strokeColor=#BD7000;" parent="1" vertex="1">
          <mxGeometry x="320" y="200" width="160" height="40" as="geometry" />
        </mxCell>
        <mxCell id="83gASJj2gVP3VqZlSx---37" style="edgeStyle=orthogonalEdgeStyle;rounded=0;orthogonalLoop=1;jettySize=auto;html=1;" parent="1" source="83gASJj2gVP3VqZlSx---33" target="83gASJj2gVP3VqZlSx---34" edge="1">
          <mxGeometry relative="1" as="geometry" />
        </mxCell>
        <mxCell id="83gASJj2gVP3VqZlSx---41" style="edgeStyle=orthogonalEdgeStyle;rounded=0;orthogonalLoop=1;jettySize=auto;html=1;" parent="1" source="83gASJj2gVP3VqZlSx---33" target="83gASJj2gVP3VqZlSx---40" edge="1">
          <mxGeometry relative="1" as="geometry">
            <Array as="points">
              <mxPoint x="400" y="780" />
              <mxPoint x="640" y="780" />
            </Array>
          </mxGeometry>
        </mxCell>
        <mxCell id="WSc6QlwBj5i7XEEv-gTP-2" style="edgeStyle=orthogonalEdgeStyle;rounded=0;orthogonalLoop=1;jettySize=auto;html=1;" parent="1" source="83gASJj2gVP3VqZlSx---33" target="WSc6QlwBj5i7XEEv-gTP-1" edge="1">
          <mxGeometry relative="1" as="geometry">
            <Array as="points">
              <mxPoint x="400" y="780" />
              <mxPoint x="160" y="780" />
            </Array>
          </mxGeometry>
        </mxCell>
        <mxCell id="83gASJj2gVP3VqZlSx---33" value="Users" style="rounded=1;whiteSpace=wrap;html=1;" parent="1" vertex="1">
          <mxGeometry x="320" y="720" width="160" height="40" as="geometry" />
        </mxCell>
        <mxCell id="83gASJj2gVP3VqZlSx---38" style="edgeStyle=orthogonalEdgeStyle;rounded=0;orthogonalLoop=1;jettySize=auto;html=1;" parent="1" source="83gASJj2gVP3VqZlSx---34" target="83gASJj2gVP3VqZlSx---36" edge="1">
          <mxGeometry relative="1" as="geometry">
            <Array as="points">
              <mxPoint x="400" y="900" />
            </Array>
          </mxGeometry>
        </mxCell>
        <mxCell id="83gASJj2gVP3VqZlSx---39" style="edgeStyle=orthogonalEdgeStyle;rounded=0;orthogonalLoop=1;jettySize=auto;html=1;" parent="1" source="83gASJj2gVP3VqZlSx---34" target="83gASJj2gVP3VqZlSx---35" edge="1">
          <mxGeometry relative="1" as="geometry">
            <Array as="points">
              <mxPoint x="400" y="980" />
            </Array>
          </mxGeometry>
        </mxCell>
        <mxCell id="83gASJj2gVP3VqZlSx---34" value="Subscriptions" style="rounded=1;whiteSpace=wrap;html=1;" parent="1" vertex="1">
          <mxGeometry x="320" y="800" width="160" height="40" as="geometry" />
        </mxCell>
        <mxCell id="83gASJj2gVP3VqZlSx---35" value="Issues" style="rounded=1;whiteSpace=wrap;html=1;" parent="1" vertex="1">
          <mxGeometry x="200" y="960" width="160" height="40" as="geometry" />
        </mxCell>
        <mxCell id="83gASJj2gVP3VqZlSx---36" value="Projects" style="rounded=1;whiteSpace=wrap;html=1;" parent="1" vertex="1">
          <mxGeometry x="200" y="880" width="160" height="40" as="geometry" />
        </mxCell>
        <mxCell id="83gASJj2gVP3VqZlSx---44" style="edgeStyle=orthogonalEdgeStyle;rounded=0;orthogonalLoop=1;jettySize=auto;html=1;" parent="1" source="83gASJj2gVP3VqZlSx---40" target="83gASJj2gVP3VqZlSx---42" edge="1">
          <mxGeometry relative="1" as="geometry" />
        </mxCell>
        <mxCell id="83gASJj2gVP3VqZlSx---40" value="Profile" style="rounded=1;whiteSpace=wrap;html=1;" parent="1" vertex="1">
          <mxGeometry x="560" y="800" width="160" height="40" as="geometry" />
        </mxCell>
        <mxCell id="83gASJj2gVP3VqZlSx---42" value="Filters" style="rounded=1;whiteSpace=wrap;html=1;" parent="1" vertex="1">
          <mxGeometry x="560" y="880" width="160" height="40" as="geometry" />
        </mxCell>
        <mxCell id="Cv8rNGdWyZ6D_KvxZlJG-1" value="Discussions" style="rounded=1;whiteSpace=wrap;html=1;" parent="1" vertex="1">
          <mxGeometry y="520" width="160" height="40" as="geometry" />
        </mxCell>
        <mxCell id="Cv8rNGdWyZ6D_KvxZlJG-6" style="edgeStyle=orthogonalEdgeStyle;rounded=0;orthogonalLoop=1;jettySize=auto;html=1;" parent="1" source="Cv8rNGdWyZ6D_KvxZlJG-4" target="83gASJj2gVP3VqZlSx---4" edge="1">
          <mxGeometry relative="1" as="geometry">
            <Array as="points">
              <mxPoint x="400" y="140" />
            </Array>
          </mxGeometry>
        </mxCell>
        <mxCell id="Cv8rNGdWyZ6D_KvxZlJG-4" value="Labels" style="rounded=1;whiteSpace=wrap;html=1;" parent="1" vertex="1">
          <mxGeometry x="320" y="40" width="160" height="40" as="geometry" />
        </mxCell>
        <mxCell id="WSc6QlwBj5i7XEEv-gTP-3" style="edgeStyle=orthogonalEdgeStyle;rounded=0;orthogonalLoop=1;jettySize=auto;html=1;" parent="1" source="WSc6QlwBj5i7XEEv-gTP-1" target="83gASJj2gVP3VqZlSx---36" edge="1">
          <mxGeometry relative="1" as="geometry">
            <Array as="points">
              <mxPoint x="160" y="900" />
            </Array>
          </mxGeometry>
        </mxCell>
        <mxCell id="WSc6QlwBj5i7XEEv-gTP-4" style="edgeStyle=orthogonalEdgeStyle;rounded=0;orthogonalLoop=1;jettySize=auto;html=1;" parent="1" source="WSc6QlwBj5i7XEEv-gTP-1" target="83gASJj2gVP3VqZlSx---35" edge="1">
          <mxGeometry relative="1" as="geometry">
            <Array as="points">
              <mxPoint x="160" y="980" />
            </Array>
          </mxGeometry>
        </mxCell>
        <mxCell id="WSc6QlwBj5i7XEEv-gTP-1" value="Added" style="rounded=1;whiteSpace=wrap;html=1;" parent="1" vertex="1">
          <mxGeometry x="80" y="800" width="160" height="40" as="geometry" />
        </mxCell>
        <mxCell id="rV19E3cG9oeUyWE12AIr-32" style="edgeStyle=orthogonalEdgeStyle;rounded=0;orthogonalLoop=1;jettySize=auto;html=1;" edge="1" parent="1" source="rV19E3cG9oeUyWE12AIr-1" target="rV19E3cG9oeUyWE12AIr-6">
          <mxGeometry relative="1" as="geometry">
            <Array as="points">
              <mxPoint x="1360" y="100" />
              <mxPoint x="960" y="100" />
            </Array>
          </mxGeometry>
        </mxCell>
        <mxCell id="rV19E3cG9oeUyWE12AIr-33" style="edgeStyle=orthogonalEdgeStyle;rounded=0;orthogonalLoop=1;jettySize=auto;html=1;" edge="1" parent="1" source="rV19E3cG9oeUyWE12AIr-1" target="rV19E3cG9oeUyWE12AIr-2">
          <mxGeometry relative="1" as="geometry">
            <Array as="points">
              <mxPoint x="1360" y="100" />
              <mxPoint x="1160" y="100" />
            </Array>
          </mxGeometry>
        </mxCell>
        <mxCell id="rV19E3cG9oeUyWE12AIr-36" style="edgeStyle=orthogonalEdgeStyle;rounded=0;orthogonalLoop=1;jettySize=auto;html=1;" edge="1" parent="1" source="rV19E3cG9oeUyWE12AIr-1" target="rV19E3cG9oeUyWE12AIr-35">
          <mxGeometry relative="1" as="geometry" />
        </mxCell>
        <mxCell id="rV19E3cG9oeUyWE12AIr-37" style="edgeStyle=orthogonalEdgeStyle;rounded=0;orthogonalLoop=1;jettySize=auto;html=1;" edge="1" parent="1" source="rV19E3cG9oeUyWE12AIr-1" target="rV19E3cG9oeUyWE12AIr-5">
          <mxGeometry relative="1" as="geometry">
            <Array as="points">
              <mxPoint x="1360" y="100" />
              <mxPoint x="1560" y="100" />
            </Array>
          </mxGeometry>
        </mxCell>
        <mxCell id="rV19E3cG9oeUyWE12AIr-38" style="edgeStyle=orthogonalEdgeStyle;rounded=0;orthogonalLoop=1;jettySize=auto;html=1;" edge="1" parent="1" source="rV19E3cG9oeUyWE12AIr-1" target="rV19E3cG9oeUyWE12AIr-3">
          <mxGeometry relative="1" as="geometry">
            <Array as="points">
              <mxPoint x="1360" y="100" />
              <mxPoint x="1760" y="100" />
            </Array>
          </mxGeometry>
        </mxCell>
        <mxCell id="rV19E3cG9oeUyWE12AIr-1" value="Routers" style="rounded=1;whiteSpace=wrap;html=1;" vertex="1" parent="1">
          <mxGeometry x="1280" y="40" width="160" height="40" as="geometry" />
        </mxCell>
        <mxCell id="rV19E3cG9oeUyWE12AIr-30" style="edgeStyle=orthogonalEdgeStyle;rounded=0;orthogonalLoop=1;jettySize=auto;html=1;" edge="1" parent="1" source="rV19E3cG9oeUyWE12AIr-2" target="rV19E3cG9oeUyWE12AIr-28">
          <mxGeometry relative="1" as="geometry">
            <Array as="points">
              <mxPoint x="1260" y="140" />
              <mxPoint x="1260" y="210" />
            </Array>
          </mxGeometry>
        </mxCell>
        <mxCell id="rV19E3cG9oeUyWE12AIr-31" style="edgeStyle=orthogonalEdgeStyle;rounded=0;orthogonalLoop=1;jettySize=auto;html=1;" edge="1" parent="1" source="rV19E3cG9oeUyWE12AIr-2" target="rV19E3cG9oeUyWE12AIr-29">
          <mxGeometry relative="1" as="geometry">
            <Array as="points">
              <mxPoint x="1260" y="140" />
              <mxPoint x="1260" y="230" />
            </Array>
          </mxGeometry>
        </mxCell>
        <mxCell id="rV19E3cG9oeUyWE12AIr-2" value="Users" style="rounded=1;whiteSpace=wrap;html=1;fillColor=#000000;fontColor=#ffffff;strokeColor=#6F0000;" vertex="1" parent="1">
          <mxGeometry x="1080" y="120" width="160" height="40" as="geometry" />
        </mxCell>
        <mxCell id="rV19E3cG9oeUyWE12AIr-41" style="edgeStyle=orthogonalEdgeStyle;rounded=0;orthogonalLoop=1;jettySize=auto;html=1;" edge="1" parent="1" source="rV19E3cG9oeUyWE12AIr-3" target="rV19E3cG9oeUyWE12AIr-39">
          <mxGeometry relative="1" as="geometry">
            <Array as="points">
              <mxPoint x="1860" y="140" />
              <mxPoint x="1860" y="210" />
            </Array>
          </mxGeometry>
        </mxCell>
        <mxCell id="rV19E3cG9oeUyWE12AIr-42" style="edgeStyle=orthogonalEdgeStyle;rounded=0;orthogonalLoop=1;jettySize=auto;html=1;" edge="1" parent="1" source="rV19E3cG9oeUyWE12AIr-3" target="rV19E3cG9oeUyWE12AIr-40">
          <mxGeometry relative="1" as="geometry">
            <Array as="points">
              <mxPoint x="1860" y="140" />
              <mxPoint x="1860" y="230" />
            </Array>
          </mxGeometry>
        </mxCell>
        <mxCell id="rV19E3cG9oeUyWE12AIr-44" style="edgeStyle=orthogonalEdgeStyle;rounded=0;orthogonalLoop=1;jettySize=auto;html=1;" edge="1" parent="1" source="rV19E3cG9oeUyWE12AIr-3" target="rV19E3cG9oeUyWE12AIr-43">
          <mxGeometry relative="1" as="geometry">
            <Array as="points">
              <mxPoint x="1860" y="140" />
              <mxPoint x="1860" y="270" />
            </Array>
          </mxGeometry>
        </mxCell>
        <mxCell id="rV19E3cG9oeUyWE12AIr-66" style="edgeStyle=orthogonalEdgeStyle;rounded=0;orthogonalLoop=1;jettySize=auto;html=1;" edge="1" parent="1" source="rV19E3cG9oeUyWE12AIr-3" target="rV19E3cG9oeUyWE12AIr-65">
          <mxGeometry relative="1" as="geometry">
            <Array as="points">
              <mxPoint x="1860" y="140" />
              <mxPoint x="1860" y="250" />
            </Array>
          </mxGeometry>
        </mxCell>
        <mxCell id="rV19E3cG9oeUyWE12AIr-71" style="edgeStyle=orthogonalEdgeStyle;rounded=0;orthogonalLoop=1;jettySize=auto;html=1;" edge="1" parent="1" source="rV19E3cG9oeUyWE12AIr-3" target="rV19E3cG9oeUyWE12AIr-64">
          <mxGeometry relative="1" as="geometry">
            <Array as="points">
              <mxPoint x="1860" y="140" />
              <mxPoint x="1860" y="290" />
            </Array>
          </mxGeometry>
        </mxCell>
        <mxCell id="rV19E3cG9oeUyWE12AIr-72" style="edgeStyle=orthogonalEdgeStyle;rounded=0;orthogonalLoop=1;jettySize=auto;html=1;" edge="1" parent="1" source="rV19E3cG9oeUyWE12AIr-3" target="rV19E3cG9oeUyWE12AIr-70">
          <mxGeometry relative="1" as="geometry">
            <Array as="points">
              <mxPoint x="1860" y="140" />
              <mxPoint x="1860" y="310" />
            </Array>
          </mxGeometry>
        </mxCell>
        <mxCell id="rV19E3cG9oeUyWE12AIr-3" value="Issues" style="rounded=1;whiteSpace=wrap;html=1;" vertex="1" parent="1">
          <mxGeometry x="1680" y="120" width="160" height="40" as="geometry" />
        </mxCell>
        <mxCell id="rV19E3cG9oeUyWE12AIr-51" style="edgeStyle=orthogonalEdgeStyle;rounded=0;orthogonalLoop=1;jettySize=auto;html=1;" edge="1" parent="1" source="rV19E3cG9oeUyWE12AIr-5" target="rV19E3cG9oeUyWE12AIr-45">
          <mxGeometry relative="1" as="geometry">
            <Array as="points">
              <mxPoint x="1660" y="140" />
              <mxPoint x="1660" y="210" />
            </Array>
          </mxGeometry>
        </mxCell>
        <mxCell id="rV19E3cG9oeUyWE12AIr-52" style="edgeStyle=orthogonalEdgeStyle;rounded=0;orthogonalLoop=1;jettySize=auto;html=1;" edge="1" parent="1" source="rV19E3cG9oeUyWE12AIr-5" target="rV19E3cG9oeUyWE12AIr-46">
          <mxGeometry relative="1" as="geometry">
            <Array as="points">
              <mxPoint x="1660" y="140" />
              <mxPoint x="1660" y="230" />
            </Array>
          </mxGeometry>
        </mxCell>
        <mxCell id="rV19E3cG9oeUyWE12AIr-56" style="edgeStyle=orthogonalEdgeStyle;rounded=0;orthogonalLoop=1;jettySize=auto;html=1;" edge="1" parent="1" source="rV19E3cG9oeUyWE12AIr-5" target="rV19E3cG9oeUyWE12AIr-54">
          <mxGeometry relative="1" as="geometry">
            <Array as="points">
              <mxPoint x="1660" y="140" />
              <mxPoint x="1660" y="250" />
            </Array>
          </mxGeometry>
        </mxCell>
        <mxCell id="rV19E3cG9oeUyWE12AIr-63" style="edgeStyle=orthogonalEdgeStyle;rounded=0;orthogonalLoop=1;jettySize=auto;html=1;" edge="1" parent="1" source="rV19E3cG9oeUyWE12AIr-5" target="rV19E3cG9oeUyWE12AIr-62">
          <mxGeometry relative="1" as="geometry">
            <Array as="points">
              <mxPoint x="1660" y="140" />
              <mxPoint x="1660" y="270" />
            </Array>
          </mxGeometry>
        </mxCell>
        <mxCell id="rV19E3cG9oeUyWE12AIr-73" style="edgeStyle=orthogonalEdgeStyle;rounded=0;orthogonalLoop=1;jettySize=auto;html=1;" edge="1" parent="1" source="rV19E3cG9oeUyWE12AIr-5" target="rV19E3cG9oeUyWE12AIr-69">
          <mxGeometry relative="1" as="geometry">
            <Array as="points">
              <mxPoint x="1660" y="140" />
              <mxPoint x="1660" y="290" />
            </Array>
          </mxGeometry>
        </mxCell>
        <mxCell id="rV19E3cG9oeUyWE12AIr-5" value="Projects" style="rounded=1;whiteSpace=wrap;html=1;" vertex="1" parent="1">
          <mxGeometry x="1480" y="120" width="160" height="40" as="geometry" />
        </mxCell>
        <mxCell id="rV19E3cG9oeUyWE12AIr-22" style="edgeStyle=orthogonalEdgeStyle;rounded=0;orthogonalLoop=1;jettySize=auto;html=1;" edge="1" parent="1" source="rV19E3cG9oeUyWE12AIr-6" target="rV19E3cG9oeUyWE12AIr-20">
          <mxGeometry relative="1" as="geometry">
            <Array as="points">
              <mxPoint x="1060" y="140" />
              <mxPoint x="1060" y="210" />
            </Array>
          </mxGeometry>
        </mxCell>
        <mxCell id="rV19E3cG9oeUyWE12AIr-23" style="edgeStyle=orthogonalEdgeStyle;rounded=0;orthogonalLoop=1;jettySize=auto;html=1;" edge="1" parent="1" source="rV19E3cG9oeUyWE12AIr-6" target="rV19E3cG9oeUyWE12AIr-18">
          <mxGeometry relative="1" as="geometry">
            <Array as="points">
              <mxPoint x="1060" y="140" />
              <mxPoint x="1060" y="230" />
            </Array>
          </mxGeometry>
        </mxCell>
        <mxCell id="rV19E3cG9oeUyWE12AIr-25" style="edgeStyle=orthogonalEdgeStyle;rounded=0;orthogonalLoop=1;jettySize=auto;html=1;" edge="1" parent="1" source="rV19E3cG9oeUyWE12AIr-6" target="rV19E3cG9oeUyWE12AIr-19">
          <mxGeometry relative="1" as="geometry">
            <Array as="points">
              <mxPoint x="1060" y="140" />
              <mxPoint x="1060" y="250" />
            </Array>
          </mxGeometry>
        </mxCell>
        <mxCell id="rV19E3cG9oeUyWE12AIr-27" style="edgeStyle=orthogonalEdgeStyle;rounded=0;orthogonalLoop=1;jettySize=auto;html=1;" edge="1" parent="1" source="rV19E3cG9oeUyWE12AIr-6" target="rV19E3cG9oeUyWE12AIr-26">
          <mxGeometry relative="1" as="geometry">
            <Array as="points">
              <mxPoint x="1060" y="140" />
              <mxPoint x="1060" y="270" />
            </Array>
          </mxGeometry>
        </mxCell>
        <mxCell id="rV19E3cG9oeUyWE12AIr-59" style="edgeStyle=orthogonalEdgeStyle;rounded=0;orthogonalLoop=1;jettySize=auto;html=1;" edge="1" parent="1" source="rV19E3cG9oeUyWE12AIr-6" target="rV19E3cG9oeUyWE12AIr-58">
          <mxGeometry relative="1" as="geometry">
            <Array as="points">
              <mxPoint x="1060" y="140" />
              <mxPoint x="1060" y="290" />
            </Array>
          </mxGeometry>
        </mxCell>
        <mxCell id="rV19E3cG9oeUyWE12AIr-75" style="edgeStyle=orthogonalEdgeStyle;rounded=0;orthogonalLoop=1;jettySize=auto;html=1;" edge="1" parent="1" source="rV19E3cG9oeUyWE12AIr-6" target="rV19E3cG9oeUyWE12AIr-67">
          <mxGeometry relative="1" as="geometry">
            <Array as="points">
              <mxPoint x="1060" y="140" />
              <mxPoint x="1060" y="310" />
            </Array>
          </mxGeometry>
        </mxCell>
        <mxCell id="rV19E3cG9oeUyWE12AIr-6" value="Auth" style="rounded=1;whiteSpace=wrap;html=1;fillColor=#000000;fontColor=#ffffff;strokeColor=#6F0000;" vertex="1" parent="1">
          <mxGeometry x="880" y="120" width="160" height="40" as="geometry" />
        </mxCell>
        <mxCell id="rV19E3cG9oeUyWE12AIr-18" value="/login" style="rounded=1;whiteSpace=wrap;html=1;align=left;" vertex="1" parent="1">
          <mxGeometry x="880" y="220" width="120" height="20" as="geometry" />
        </mxCell>
        <mxCell id="rV19E3cG9oeUyWE12AIr-19" value="/logout" style="rounded=1;whiteSpace=wrap;html=1;fillColor=#000000;fontColor=#ffffff;strokeColor=#6F0000;align=left;" vertex="1" parent="1">
          <mxGeometry x="880" y="240" width="120" height="20" as="geometry" />
        </mxCell>
        <mxCell id="rV19E3cG9oeUyWE12AIr-20" value="/register" style="rounded=1;whiteSpace=wrap;html=1;align=left;" vertex="1" parent="1">
          <mxGeometry x="880" y="200" width="120" height="20" as="geometry" />
        </mxCell>
        <mxCell id="rV19E3cG9oeUyWE12AIr-26" value="/" style="rounded=1;whiteSpace=wrap;html=1;fillColor=#000000;fontColor=#ffffff;strokeColor=#6F0000;align=left;" vertex="1" parent="1">
          <mxGeometry x="880" y="260" width="120" height="20" as="geometry" />
        </mxCell>
        <mxCell id="rV19E3cG9oeUyWE12AIr-28" value="/" style="rounded=1;whiteSpace=wrap;html=1;fillColor=none;fontColor=#ffffff;strokeColor=#FFFFFF;align=left;" vertex="1" parent="1">
          <mxGeometry x="1080" y="200" width="120" height="20" as="geometry" />
        </mxCell>
        <mxCell id="rV19E3cG9oeUyWE12AIr-29" value="/{id}/" style="rounded=1;whiteSpace=wrap;html=1;fillColor=none;fontColor=#ffffff;strokeColor=#FFFFFF;align=left;" vertex="1" parent="1">
          <mxGeometry x="1080" y="220" width="120" height="20" as="geometry" />
        </mxCell>
        <mxCell id="rV19E3cG9oeUyWE12AIr-49" style="edgeStyle=orthogonalEdgeStyle;rounded=0;orthogonalLoop=1;jettySize=auto;html=1;" edge="1" parent="1" source="rV19E3cG9oeUyWE12AIr-35" target="rV19E3cG9oeUyWE12AIr-47">
          <mxGeometry relative="1" as="geometry">
            <Array as="points">
              <mxPoint x="1460" y="140" />
              <mxPoint x="1460" y="210" />
            </Array>
          </mxGeometry>
        </mxCell>
        <mxCell id="rV19E3cG9oeUyWE12AIr-50" style="edgeStyle=orthogonalEdgeStyle;rounded=0;orthogonalLoop=1;jettySize=auto;html=1;" edge="1" parent="1" source="rV19E3cG9oeUyWE12AIr-35" target="rV19E3cG9oeUyWE12AIr-48">
          <mxGeometry relative="1" as="geometry">
            <Array as="points">
              <mxPoint x="1460" y="140" />
              <mxPoint x="1460" y="230" />
            </Array>
          </mxGeometry>
        </mxCell>
        <mxCell id="rV19E3cG9oeUyWE12AIr-57" style="edgeStyle=orthogonalEdgeStyle;rounded=0;orthogonalLoop=1;jettySize=auto;html=1;" edge="1" parent="1" source="rV19E3cG9oeUyWE12AIr-35" target="rV19E3cG9oeUyWE12AIr-53">
          <mxGeometry relative="1" as="geometry">
            <Array as="points">
              <mxPoint x="1460" y="140" />
              <mxPoint x="1460" y="250" />
            </Array>
          </mxGeometry>
        </mxCell>
        <mxCell id="rV19E3cG9oeUyWE12AIr-61" style="edgeStyle=orthogonalEdgeStyle;rounded=0;orthogonalLoop=1;jettySize=auto;html=1;" edge="1" parent="1" source="rV19E3cG9oeUyWE12AIr-35" target="rV19E3cG9oeUyWE12AIr-60">
          <mxGeometry relative="1" as="geometry">
            <Array as="points">
              <mxPoint x="1460" y="140" />
              <mxPoint x="1460" y="270" />
            </Array>
          </mxGeometry>
        </mxCell>
        <mxCell id="rV19E3cG9oeUyWE12AIr-74" style="edgeStyle=orthogonalEdgeStyle;rounded=0;orthogonalLoop=1;jettySize=auto;html=1;" edge="1" parent="1" source="rV19E3cG9oeUyWE12AIr-35" target="rV19E3cG9oeUyWE12AIr-68">
          <mxGeometry relative="1" as="geometry">
            <Array as="points">
              <mxPoint x="1460" y="140" />
              <mxPoint x="1460" y="290" />
            </Array>
          </mxGeometry>
        </mxCell>
        <mxCell id="rV19E3cG9oeUyWE12AIr-35" value="Teams" style="rounded=1;whiteSpace=wrap;html=1;fillColor=#000000;fontColor=#ffffff;strokeColor=#6F0000;" vertex="1" parent="1">
          <mxGeometry x="1280" y="120" width="160" height="40" as="geometry" />
        </mxCell>
        <mxCell id="rV19E3cG9oeUyWE12AIr-39" value="/" style="rounded=1;whiteSpace=wrap;html=1;fillColor=none;fontColor=#ffffff;strokeColor=#FFFFFF;align=left;" vertex="1" parent="1">
          <mxGeometry x="1680" y="200" width="120" height="20" as="geometry" />
        </mxCell>
        <mxCell id="rV19E3cG9oeUyWE12AIr-40" value="/create" style="rounded=1;whiteSpace=wrap;html=1;fillColor=#000000;fontColor=#ffffff;strokeColor=#6F0000;align=left;" vertex="1" parent="1">
          <mxGeometry x="1680" y="220" width="120" height="20" as="geometry" />
        </mxCell>
        <mxCell id="rV19E3cG9oeUyWE12AIr-43" value="/{id}/update" style="rounded=1;whiteSpace=wrap;html=1;fillColor=#000000;fontColor=#ffffff;strokeColor=#6F0000;align=left;" vertex="1" parent="1">
          <mxGeometry x="1680" y="260" width="120" height="20" as="geometry" />
        </mxCell>
        <mxCell id="rV19E3cG9oeUyWE12AIr-45" value="/" style="rounded=1;whiteSpace=wrap;html=1;fillColor=none;fontColor=#ffffff;strokeColor=#FFFFFF;align=left;" vertex="1" parent="1">
          <mxGeometry x="1480" y="200" width="120" height="20" as="geometry" />
        </mxCell>
        <mxCell id="rV19E3cG9oeUyWE12AIr-46" value="/create" style="rounded=1;whiteSpace=wrap;html=1;fillColor=#000000;fontColor=#ffffff;strokeColor=#6F0000;align=left;" vertex="1" parent="1">
          <mxGeometry x="1480" y="220" width="120" height="20" as="geometry" />
        </mxCell>
        <mxCell id="rV19E3cG9oeUyWE12AIr-47" value="/" style="rounded=1;whiteSpace=wrap;html=1;fillColor=none;fontColor=#ffffff;strokeColor=#FFFFFF;align=left;" vertex="1" parent="1">
          <mxGeometry x="1280" y="200" width="120" height="20" as="geometry" />
        </mxCell>
        <mxCell id="rV19E3cG9oeUyWE12AIr-48" value="/create" style="rounded=1;whiteSpace=wrap;html=1;fillColor=none;fontColor=#ffffff;strokeColor=#FFFFFF;align=left;" vertex="1" parent="1">
          <mxGeometry x="1280" y="220" width="120" height="20" as="geometry" />
        </mxCell>
        <mxCell id="rV19E3cG9oeUyWE12AIr-53" value="/{id}/" style="rounded=1;whiteSpace=wrap;html=1;fillColor=none;fontColor=#ffffff;strokeColor=#FFFFFF;align=left;" vertex="1" parent="1">
          <mxGeometry x="1280" y="240" width="120" height="20" as="geometry" />
        </mxCell>
        <mxCell id="rV19E3cG9oeUyWE12AIr-54" value="/{id}/" style="rounded=1;whiteSpace=wrap;html=1;fillColor=none;fontColor=#ffffff;strokeColor=#FFFFFF;align=left;" vertex="1" parent="1">
          <mxGeometry x="1480" y="240" width="120" height="20" as="geometry" />
        </mxCell>
        <mxCell id="rV19E3cG9oeUyWE12AIr-58" value="/update" style="rounded=1;whiteSpace=wrap;html=1;fillColor=#000000;fontColor=#ffffff;strokeColor=#6F0000;align=left;" vertex="1" parent="1">
          <mxGeometry x="880" y="280" width="120" height="20" as="geometry" />
        </mxCell>
        <mxCell id="rV19E3cG9oeUyWE12AIr-60" value="/{id}/update" style="rounded=1;whiteSpace=wrap;html=1;fillColor=none;fontColor=#ffffff;strokeColor=#FFFFFF;align=left;" vertex="1" parent="1">
          <mxGeometry x="1280" y="260" width="120" height="20" as="geometry" />
        </mxCell>
        <mxCell id="rV19E3cG9oeUyWE12AIr-62" value="/{id}/update" style="rounded=1;whiteSpace=wrap;html=1;fillColor=#000000;fontColor=#ffffff;strokeColor=#6F0000;align=left;" vertex="1" parent="1">
          <mxGeometry x="1480" y="260" width="120" height="20" as="geometry" />
        </mxCell>
        <mxCell id="rV19E3cG9oeUyWE12AIr-64" value="/{id}/delete" style="rounded=1;whiteSpace=wrap;html=1;fillColor=#000000;fontColor=#ffffff;strokeColor=#6F0000;align=left;" vertex="1" parent="1">
          <mxGeometry x="1680" y="280" width="120" height="20" as="geometry" />
        </mxCell>
        <mxCell id="rV19E3cG9oeUyWE12AIr-65" value="/{id}/" style="rounded=1;whiteSpace=wrap;html=1;fillColor=none;fontColor=#ffffff;strokeColor=#FFFFFF;align=left;" vertex="1" parent="1">
          <mxGeometry x="1680" y="240" width="120" height="20" as="geometry" />
        </mxCell>
        <mxCell id="rV19E3cG9oeUyWE12AIr-67" value="/delete" style="rounded=1;whiteSpace=wrap;html=1;fillColor=#000000;fontColor=#ffffff;strokeColor=#6F0000;align=left;" vertex="1" parent="1">
          <mxGeometry x="880" y="300" width="120" height="20" as="geometry" />
        </mxCell>
        <mxCell id="rV19E3cG9oeUyWE12AIr-68" value="/{id}/delete" style="rounded=1;whiteSpace=wrap;html=1;fillColor=none;fontColor=#ffffff;strokeColor=#FFFFFF;align=left;" vertex="1" parent="1">
          <mxGeometry x="1280" y="280" width="120" height="20" as="geometry" />
        </mxCell>
        <mxCell id="rV19E3cG9oeUyWE12AIr-69" value="/{id}/delete" style="rounded=1;whiteSpace=wrap;html=1;fillColor=#000000;fontColor=#ffffff;strokeColor=#6F0000;align=left;" vertex="1" parent="1">
          <mxGeometry x="1480" y="280" width="120" height="20" as="geometry" />
        </mxCell>
        <mxCell id="rV19E3cG9oeUyWE12AIr-70" value="/{id}/vote" style="rounded=1;whiteSpace=wrap;html=1;fillColor=#000000;fontColor=#ffffff;strokeColor=#6F0000;align=left;" vertex="1" parent="1">
          <mxGeometry x="1680" y="300" width="120" height="20" as="geometry" />
        </mxCell>
      </root>
    </mxGraphModel>
  </diagram>
  <diagram id="VCgoLq7p7_EkMAWYLTvo" name="Tools / Tech">
    <mxGraphModel dx="1678" dy="995" grid="1" gridSize="10" guides="1" tooltips="1" connect="1" arrows="1" fold="1" page="1" pageScale="1" pageWidth="850" pageHeight="1100" math="0" shadow="0">
      <root>
        <mxCell id="0" />
        <mxCell id="1" parent="0" />
        <mxCell id="E-ax4I8cqtGZWVXm5UN6-3" style="edgeStyle=orthogonalEdgeStyle;rounded=0;orthogonalLoop=1;jettySize=auto;html=1;" edge="1" parent="1" source="7wZeBLM4J0JfuDgkiE6d-1" target="E-ax4I8cqtGZWVXm5UN6-1">
          <mxGeometry relative="1" as="geometry">
            <Array as="points">
              <mxPoint x="360" y="180" />
            </Array>
          </mxGeometry>
        </mxCell>
        <mxCell id="E-ax4I8cqtGZWVXm5UN6-4" style="edgeStyle=orthogonalEdgeStyle;rounded=0;orthogonalLoop=1;jettySize=auto;html=1;" edge="1" parent="1" source="7wZeBLM4J0JfuDgkiE6d-1" target="E-ax4I8cqtGZWVXm5UN6-2">
          <mxGeometry relative="1" as="geometry">
            <Array as="points">
              <mxPoint x="360" y="260" />
            </Array>
          </mxGeometry>
        </mxCell>
        <mxCell id="E-ax4I8cqtGZWVXm5UN6-6" style="edgeStyle=orthogonalEdgeStyle;rounded=0;orthogonalLoop=1;jettySize=auto;html=1;" edge="1" parent="1" source="7wZeBLM4J0JfuDgkiE6d-1" target="E-ax4I8cqtGZWVXm5UN6-5">
          <mxGeometry relative="1" as="geometry">
            <Array as="points">
              <mxPoint x="360" y="340" />
            </Array>
          </mxGeometry>
        </mxCell>
        <mxCell id="E-ax4I8cqtGZWVXm5UN6-8" style="edgeStyle=orthogonalEdgeStyle;rounded=0;orthogonalLoop=1;jettySize=auto;html=1;" edge="1" parent="1" source="7wZeBLM4J0JfuDgkiE6d-1" target="E-ax4I8cqtGZWVXm5UN6-7">
          <mxGeometry relative="1" as="geometry">
            <Array as="points">
              <mxPoint x="360" y="420" />
            </Array>
          </mxGeometry>
        </mxCell>
        <mxCell id="E-ax4I8cqtGZWVXm5UN6-10" style="edgeStyle=orthogonalEdgeStyle;rounded=0;orthogonalLoop=1;jettySize=auto;html=1;" edge="1" parent="1" source="7wZeBLM4J0JfuDgkiE6d-1" target="E-ax4I8cqtGZWVXm5UN6-9">
          <mxGeometry relative="1" as="geometry">
            <Array as="points">
              <mxPoint x="360" y="500" />
            </Array>
          </mxGeometry>
        </mxCell>
        <mxCell id="rq8J3rnd3mXwQnBNoCmQ-2" style="edgeStyle=orthogonalEdgeStyle;rounded=0;orthogonalLoop=1;jettySize=auto;html=1;" edge="1" parent="1" source="7wZeBLM4J0JfuDgkiE6d-1" target="rq8J3rnd3mXwQnBNoCmQ-1">
          <mxGeometry relative="1" as="geometry" />
        </mxCell>
        <mxCell id="7wZeBLM4J0JfuDgkiE6d-1" value="Tags" style="rounded=1;whiteSpace=wrap;html=1;" vertex="1" parent="1">
          <mxGeometry x="280" y="80" width="160" height="40" as="geometry" />
        </mxCell>
        <mxCell id="E-ax4I8cqtGZWVXm5UN6-1" value="Best Practices" style="rounded=1;whiteSpace=wrap;html=1;" vertex="1" parent="1">
          <mxGeometry x="160" y="160" width="160" height="40" as="geometry" />
        </mxCell>
        <mxCell id="E-ax4I8cqtGZWVXm5UN6-2" value="Blogs" style="rounded=1;whiteSpace=wrap;html=1;" vertex="1" parent="1">
          <mxGeometry x="160" y="240" width="160" height="40" as="geometry" />
        </mxCell>
        <mxCell id="E-ax4I8cqtGZWVXm5UN6-5" value="Learning Materials" style="rounded=1;whiteSpace=wrap;html=1;" vertex="1" parent="1">
          <mxGeometry x="160" y="320" width="160" height="40" as="geometry" />
        </mxCell>
        <mxCell id="E-ax4I8cqtGZWVXm5UN6-11" style="edgeStyle=orthogonalEdgeStyle;rounded=0;orthogonalLoop=1;jettySize=auto;html=1;" edge="1" parent="1" source="E-ax4I8cqtGZWVXm5UN6-7" target="E-ax4I8cqtGZWVXm5UN6-9">
          <mxGeometry relative="1" as="geometry">
            <Array as="points">
              <mxPoint x="120" y="420" />
              <mxPoint x="120" y="500" />
            </Array>
          </mxGeometry>
        </mxCell>
        <mxCell id="E-ax4I8cqtGZWVXm5UN6-7" value="Projects" style="rounded=1;whiteSpace=wrap;html=1;" vertex="1" parent="1">
          <mxGeometry x="160" y="400" width="160" height="40" as="geometry" />
        </mxCell>
        <mxCell id="E-ax4I8cqtGZWVXm5UN6-9" value="Issues" style="rounded=1;whiteSpace=wrap;html=1;" vertex="1" parent="1">
          <mxGeometry x="160" y="480" width="160" height="40" as="geometry" />
        </mxCell>
        <mxCell id="rq8J3rnd3mXwQnBNoCmQ-1" value="Labels" style="rounded=1;whiteSpace=wrap;html=1;" vertex="1" parent="1">
          <mxGeometry x="480" y="80" width="160" height="40" as="geometry" />
        </mxCell>
      </root>
    </mxGraphModel>
  </diagram>
</mxfile>
